<?xml version="1.0" standalone="no"?><svg xmlns="http://www.w3.org/2000/svg" viewBox="0 0 1440 320"><path fill="#eee5d3" fill-opacity="1" d="M0,96L40,90.7C80,85,160,75,240,101.3C320,128,400,192,480,224C560,256,640,256,720,234.7C800,213,880,171,960,176C1040,181,1120,235,1200,218.7C1280,203,1360,117,1400,74.7L1440,32L1440,320L1400,320C1360,320,1280,320,1200,320C1120,320,1040,320,960,320C880,320,800,320,720,320C640,320,560,320,480,320C400,320,320,320,240,320C160,320,80,320,40,320L0,320Z"></path></svg>